<?xml version="1.0" encoding="utf-8"?>
<!-- Generator: Adobe Illustrator 16.0.0, SVG Export Plug-In . SVG Version: 6.00 Build 0)  -->
<!DOCTYPE svg PUBLIC "-//W3C//DTD SVG 1.1//EN" "http://www.w3.org/Graphics/SVG/1.1/DTD/svg11.dtd">
<svg version="1.1" id="Layer_1" xmlns="http://www.w3.org/2000/svg" xmlns:xlink="http://www.w3.org/1999/xlink" x="0px" y="0px"
	 width="39.625px" height="32.375px" viewBox="0 0 39.625 32.375" enable-background="new 0 0 39.625 32.375" xml:space="preserve">
<g id="_x35_151e0c8492e5103c096af88a50059a5">
	<path fill="#FFFFFF" d="M10.436,4h18.751c1.783,0,3.239,1.457,3.239,3.238V25.99c0,1.781-1.456,3.238-3.239,3.238H10.436
		c-1.781,0-3.238-1.457-3.238-3.238V7.238C7.198,5.457,8.654,4,10.436,4L10.436,4z M25.576,6.803c-0.625,0-1.137,0.51-1.137,1.135
		v2.719c0,0.625,0.512,1.135,1.137,1.135h2.852c0.625,0,1.137-0.51,1.137-1.135V7.938c0-0.625-0.512-1.135-1.137-1.135H25.576
		L25.576,6.803z M29.575,14.669h-2.22c0.209,0.687,0.322,1.412,0.322,2.165c0,4.196-3.511,7.6-7.843,7.6s-7.842-3.402-7.842-7.6
		c0-0.753,0.113-1.479,0.323-2.165H10v10.657c0,0.552,0.451,1.003,1.003,1.003H28.57c0.553,0,1.004-0.451,1.004-1.003L29.575,14.669
		L29.575,14.669z M19.836,11.65c-2.799,0-5.067,2.199-5.067,4.911c0,2.712,2.268,4.909,5.067,4.909s5.066-2.196,5.066-4.909
		C24.902,13.849,22.635,11.65,19.836,11.65z"/>
</g>
</svg>
