<?xml version="1.0" encoding="utf-8"?>
<!-- Generator: Adobe Illustrator 16.0.0, SVG Export Plug-In . SVG Version: 6.00 Build 0)  -->
<!DOCTYPE svg PUBLIC "-//W3C//DTD SVG 1.1//EN" "http://www.w3.org/Graphics/SVG/1.1/DTD/svg11.dtd">
<svg version="1.1"
	 id="svg2" inkscape:version="0.48.4 r9939" sodipodi:docname="Twitter_bird_logo_2012.svg" xmlns:dc="http://purl.org/dc/elements/1.1/" xmlns:cc="http://creativecommons.org/ns#" xmlns:rdf="http://www.w3.org/1999/02/22-rdf-syntax-ns#" xmlns:svg="http://www.w3.org/2000/svg" xmlns:sodipodi="http://sodipodi.sourceforge.net/DTD/sodipodi-0.dtd" xmlns:inkscape="http://www.inkscape.org/namespaces/inkscape"
	 xmlns="http://www.w3.org/2000/svg" xmlns:xlink="http://www.w3.org/1999/xlink" x="0px" y="0px" width="171.506px"
	 height="139.379px" viewBox="0 0 171.506 139.379" enable-background="new 0 0 171.506 139.379" xml:space="preserve">
<sodipodi:namedview  id="base" fit-margin-bottom="0" inkscape:window-y="-8" inkscape:window-maximized="1" inkscape:window-height="962" fit-margin-right="0" inkscape:window-width="1280" inkscape:window-x="-8" inkscape:current-layer="layer1" inkscape:pageopacity="0.0" inkscape:pageshadow="2" inkscape:document-units="px" inkscape:zoom="3.7200571" pagecolor="#ffffff" borderopacity="1.0" fit-margin-left="0" inkscape:cy="50.181142" fit-margin-top="0" bordercolor="#666666" showgrid="false" inkscape:cx="101.29413">
	</sodipodi:namedview>
<g id="layer1" transform="translate(-282.32053,-396.30734)" inkscape:label="Layer 1" inkscape:groupmode="layer">
	<path id="path5" inkscape:connector-curvature="0" fill="#262B2E" d="M433.055,425.69c-4.781,2.121-9.921,3.554-15.313,4.198
		c5.505-3.3,9.732-8.524,11.723-14.751c-5.152,3.056-10.857,5.274-16.932,6.471c-4.863-5.183-11.793-8.42-19.462-8.42
		c-14.725,0-26.664,11.938-26.664,26.662c0,2.09,0.236,4.125,0.691,6.077c-22.16-1.112-41.806-11.727-54.957-27.859
		c-2.295,3.938-3.611,8.518-3.611,13.404c0,9.251,4.708,17.412,11.862,22.193c-4.371-0.138-8.482-1.338-12.077-3.334
		c-0.003,0.111-0.003,0.223-0.003,0.335c0,12.918,9.19,23.694,21.389,26.146c-2.237,0.609-4.593,0.935-7.024,0.935
		c-1.718,0-3.389-0.167-5.017-0.478c3.393,10.592,13.239,18.301,24.908,18.516c-9.126,7.151-20.622,11.415-33.115,11.415
		c-2.151,0-4.274-0.127-6.36-0.373c11.801,7.565,25.815,11.979,40.873,11.979c49.043,0,75.863-40.628,75.863-75.864
		c0-1.156-0.025-2.306-0.076-3.45C424.959,435.733,429.479,431.038,433.055,425.69L433.055,425.69z"/>
</g>
</svg>
